<svg xmlns="http://www.w3.org/2000/svg" xmlns:xlink="http://www.w3.org/1999/xlink" version="1.1" x="0px" y="0px" viewBox="0 0 1000 1000" enable-background="new 0 0 1000 1000" xml:space="preserve">
<metadata> Svg Vector Icons : http://www.onlinewebfonts.com/icon </metadata>
<g><path d="M947.2,339.4L529.7,755c-10.5,10.4-27.5,10.4-38,0l-8.4-8.4h0l-9.1-9.1l-39.4-39.2c-0.3-0.3-0.3-0.6-0.6-0.9l-180.6-181c-10.5-10.4-10.5-27.4,0-37.8l56.9-56.7c10.5-10.4,27.5-10.4,38,0l162.4,162.8L852.3,245c10.5-10.4,27.5-10.4,38,0l57,56.6C957.7,312.1,957.7,329,947.2,339.4z M706.1,212.1c-38.9-35.5-43.9-100.5-43.9-100.5s-96.7-17.3-195-17.3c-96.6,0-195,17.3-195,17.3s-6.6,65.3-43.5,99c-39.1,35.8-108.7,40-108.7,40s-7.5,127.1,3.2,237.6c10.5,108.7,37.4,216.2,137.1,297.6C341.9,852.4,464,905.7,464,905.7s95.8-41.9,165.3-87.3c76.3-50.1,148.1-118.6,170-248.8c0.9-5.2,1.6-10.6,2.4-15.9l79.8-79.5c-3,37.3-7.2,74.8-13.1,109.9c-26.5,157.3-113.2,240-205.3,300.5C579.2,939.5,463.4,990,463.4,990S316,925.8,217.5,845.3C97,747,64.5,617.2,51.8,485.8C39,352.4,48,198.8,48,198.8s84.1-5.1,131.3-48.2c44.6-40.7,52.5-119.5,52.5-119.5S350.6,10,467.4,10c118.8,0,235.5,21.1,235.5,21.1s6,78.4,53,121.2c20.4,18.6,49.1,29.8,74.6,36.6l-58.7,54.5C749.8,237.9,724,228.4,706.1,212.1z"/></g>
</svg>