<?xml version="1.0" encoding="utf-8"?>
<!-- Generator: Adobe Illustrator 23.0.1, SVG Export Plug-In . SVG Version: 6.00 Build 0)  -->
<svg version="1.1" id="cripto-notebook-icon" xmlns="http://www.w3.org/2000/svg" xmlns:xlink="http://www.w3.org/1999/xlink"
	 x="0px" y="0px" viewBox="0 0 401.8 384" style="enable-background:new 0 0 401.8 384;" xml:space="preserve">
<path style="fill:#414A61;" d="M41.2,289.7c0.3-0.7,0.6-1.5,1-2.2c0-0.6,0.1-1.1,0.5-1.5c5.4-3.5,11.2-6.3,16.8-9.6
	c5.7-3.3,11.3-6.8,17.1-10c10.7-5.9,21-12.4,31.7-18.2c7.5-4.1,14.7-8.8,22.3-12.9c7.6-4.1,15.1-8.7,22.6-13
	c6.7-3.8,13.3-7.9,20-11.7c9.2-5.2,18.2-10.7,27.5-15.8c4.1-2.3,8.4-4.3,12.2-7.3c1.2-1,2.6-1.6,4.1-0.6c4.3,2.7,8.9,5,13.2,7.8
	c0.6,0.4,1.2,0.9,1.4,1.7c0.2,1.1-1.4,2.3,0.3,3.2c1.9,1.1,3.2-0.1,4.7-0.9c1.5,0.2,2.8,0.7,3.1,2.4c-0.3,0.9-1.3,1.1-1.9,2
	c3.4,1.9,6.2,4.9,10.6,1.8c1.9-1.3,2.9-2.4,2.3-4.6c1.8-0.8,3.1,0.4,4.5,1.2c2.6,1.5,5.2,2.9,7.8,4.5c1,0.6,2,1.7,3.4,0.9
	c1.4-1.3,1.2-3.1,1.4-4.8c0.1-1.4-0.3-3,1.3-3.9c1.6,0.9,1.2,2.5,1.3,3.9c0.1,0.7,0,1.7,1,1.7c1,0,1.9-0.6,2.5-1.4
	c0.6-0.9-0.4-1.3-1-1.6c-1.4-0.8-2.7-1.6-3.8-2.9c-0.8-1.4-0.6-2.9-0.2-4.4c1.6-2.4,4.7-2.6,6.7-4.8c-1.7-2.5-5.6-2.5-6.9-5.6
	c-0.2-2.6-1.1-5.2,0.9-7.4c16.8,9.8,33.7,19.5,50.5,29.3c21,12.2,42,24.5,63,36.8c2.4,1.4,4.9,2.7,4.8,6.1c-0.5,2.5-2,4.2-4.2,5.4
	c-24.4,14.1-48.9,28.2-73.4,42.4c-26.4,15.3-52.8,30.5-79.2,45.7c-15.3,8.9-30.8,17.7-46.1,26.6c-6.6,3.8-13.2,3-19.5-0.8
	c-10.5-6.3-21.1-12.4-31.7-18.5c-28.3-16.5-56.5-33-84.8-49.5c-1.6-0.9-3.2-1.9-4.8-2.9C41.8,294.5,40.4,292.6,41.2,289.7z"/>
<path style="fill:#373F51;" d="M231.1,196.9c-4.4-3.9-10.2-5.7-14.8-9.3c-1.1-0.8-2-0.2-2.7,0.4c-5.9,4.5-12.6,7.4-19,11.1
	c-5.3,3.1-10.4,6.6-15.9,9.4c-6,3-11.5,7.1-17.6,10c-3.9,1.8-7.3,4.6-11.2,6.7c-2.7,1.4-5.3,2.8-7.9,4.4c-3.7,2.3-7.3,4.6-11.1,6.7
	c-4.4,2.5-8.8,4.9-13.2,7.5c-4,2.3-7.7,5-11.9,6.9c-6.2,2.8-11.5,7.1-17.6,10c-3.9,1.9-7.6,4.6-11.5,6.8c-2.4,1.4-4.6,3.3-7.3,3.9
	c-2.2,0.4-3.5,2.3-5.1,3.3c-7,4.4-14.4,7.9-21.4,12.1c-1.2,0.7-2.5,0.4-3.8,0.2c-0.7-0.6-1.4-1.2-2.1-1.7c-1.5-1.3-1.4-3.2-1.3-4.9
	c0.5-20.9-1.1-41.9-0.8-62.8c0.2-14.3,0-28.7,0.1-43c0.4-10.1,0-20.2,0.2-30.4c1-7,4.5-12.1,10.8-15.6
	c34.1-19.5,68.1-39.3,102.2-58.9c29.6-17.1,59.2-34.2,88.9-51.3c2.3-1.3,4.6-2.5,6.8-3.9c1.7-1,3.4-1.4,5.3-0.6
	c2.1,0.7,3.2,2.2,3.1,4.4c0.4,1.1,0.2,2.2,0.2,3.3c0,28.7,0,57.5,0,86.2c0,1.2,0.7,2.7-0.6,3.4c-1.4,0.8-2.9-0.2-4.2-0.9
	c-2.5-1.3-3.3-3.5-3.3-6.2c0-6,0-12,0-18c0-15.6,0-31.2,0-46.9c0-1.5,0.2-3-0.3-4.4c-1.7-1.2-2.9,0.3-4,1
	C215.5,49.8,191,63.8,166.6,78c-39.2,22.7-78.6,45.3-117.8,68c-3,1.7-4.3,3.6-4.3,7.1c0.1,17-0.5,34,0.2,51c1,22.5,0.2,45,0.6,67.4
	c0.1,3.9,0.1,3.9,3.3,2c42-24.1,84-48.4,125.9-72.7c9.1-5.3,18.1-10.5,27.3-15.7c1-0.6,2.7-0.9,2.6-2.3c-0.1-1.4-1.7-1.7-2.7-2.3
	c-3.6-2-7.1-4.1-10.8-6.1c-5.4-2.1-7-5.9-6.9-11.7c0.3-17.8,0.1-35.6,0.1-53.4c0-2-0.2-4,0.7-5.9c1.4-1.6,2.5-0.2,3.6,0.4
	c16.9,10,33.9,19.7,50.9,29.5c1.9,1.1,4.1,2,4.7,4.6c0.6,4.7,0.3,9.4,0.3,14.2c0,14.8,0,29.6,0,44.4c0,1.9,0.2,3.7-0.5,5.5
	c-2,2.1-3.3,1-4.4-1c-1.1-0.7-2.1-1.4-3.2-2.1C233.9,199.8,232.6,198.1,231.1,196.9z"/>
<path style="fill:#B3BDD6;" d="M41.2,289.7c-0.2,3.1,1.7,4.7,4.1,6.1c37.6,21.9,75.2,43.9,112.8,65.8c2.9,1.7,5.8,3.4,8.7,5.1
	c6.2,3.6,12.3,3.4,18.4-0.2c20.6-12,41.3-23.9,61.9-35.8c44.9-25.9,89.7-51.8,134.6-77.7c2.4-1.4,4.8-2.7,6-5.4
	c0,3.4,0,6.7,0.1,10.1c0.1,2.6-1,4.5-3.3,5.8c-21.1,12.1-42.1,24.3-63.2,36.5c-21.7,12.5-43.4,25.1-65.1,37.6
	c-22.3,12.8-44.5,25.6-66.8,38.5c-4.8,2.8-9.4,5.8-15.3,5.1c-5.3-0.6-9.5-3.7-13.9-6.3c-30.9-18-61.8-36.1-92.7-54.1
	c-7.5-4.4-15.1-8.8-22.6-13.2c-2.6-1.5-4.1-3.4-3.8-6.6C41.6,297.3,39.7,293.5,41.2,289.7z"/>
<path style="fill:#B3BDD6;" d="M249.1,13.7c-2.2-0.1-4.1,0.9-5.9,2c-65.7,38-131.5,76-197.3,113.8c-5.4,3.1-8.3,7.6-9.9,13.3
	c-0.5,10.5-0.4,21,0,31.4c0.1,12,0.1,24,0.2,36c0.2,23.4,0.3,46.7,0.5,70.1c0,1.6,0.2,3.2,0.3,4.9c-3.8-0.6-5.4-2.7-5.5-6.6
	c-1.1-45.5-0.4-90.9-0.6-136.4c0-6.5,2.8-11.6,8.5-14.9c14.3-8.4,28.7-16.6,43.1-24.9c23.4-13.5,46.9-27.1,70.3-40.6
	c22-12.7,44.1-25.4,66.1-38.2c5.8-3.4,11.8-6.6,17.4-10.2C240.8,10.6,244.9,9.7,249.1,13.7z"/>
<path style="fill:#4C5671;" d="M244.4,31.9c1.7,1,0.9,2.7,0.9,4.1c0.1,22.1,0.1,44.2,0.1,66.3c0,6.1,0.1,6.2,6.7,8.5
	c0-1.4,0-2.7,0-4c0-28-0.1-55.9-0.1-83.9c0-1.6,0.1-3.2,0.2-4.9c0.8,1.4,0.4,2.9,0.4,4.4c0.1,28.5,0.2,56.9,0.1,85.4
	c0,2.9,0.6,4.8,3.4,6.1c3.7,1.7,7.2,4,10.7,6.1c1,0.6,2.6,0.7,2.4,2.5c-0.8,1-1.8,1.6-3.1,2c-0.4,0.1-0.7,0.1-1.1,0
	c-3.2-1.1-5.9-3.2-8.8-4.9c-20.2-12-40.8-23.2-60.9-35.2c-1.1-0.6-2.2-1.2-3-2.1c-0.4-0.5-0.6-1-0.4-1.7c2.2-2.7,4.6-2.3,7.3-0.8
	c13.1,7.5,26.1,15.1,39.2,22.6c1.4,0.8,2.9,2.5,4.3,1.7c1.5-0.8,0.7-3,0.7-4.5c0-20.6,0-41.2,0-61.7
	C243.6,35.8,243.4,33.8,244.4,31.9z"/>
<path style="fill:#272E3A;" d="M266.4,124c0.8-0.9,1.8-1.4,3-1.5c0,16.1,0,32.1,0,48.2c0,1.6,0.1,3.2,0.1,4.8c0,2.8-0.1,5.6-0.1,8.5
	c1.7,3,1.7,6,0,9c0,1.7,0,3.4,0,5.2c0,0,0,0,0,0c-1.3,1.6-0.6,3.5-0.6,5.3c0,2-0.4,3.6-2.3,4.5c-1.6-0.1-1.5-1.4-1.8-2.4
	c-0.1-2.5,0-4.9-0.1-7.4c0-2.3,0-4.5,0-6.8c0.1-2.1,0.1-4.2-0.1-6.3c-0.3-17.1,0.2-34.2,0.8-51.3C265.8,130.6,264.4,127.1,266.4,124
	z"/>
<path style="fill:#B5B8BF;" d="M39.1,286.9c1.3-0.1,2.5-0.1,3.8-0.2c0,0.5-0.2,0.8-0.7,0.8C41.1,287.6,39.9,288,39.1,286.9z"/>
<path style="fill:#272E3A;" d="M226.4,323.6c-4.2-0.4-7.7-3.6-11.5-5.7c-7.4-4-14.7-8.5-22-12.7c-3.6-2.1-3.9-4.1-0.2-6.2
	c9.4-5.6,18.9-11,28.4-16.5c10.6-6.1,21.2-12.1,31.7-18.4c5-3,9.5-3.5,14.6-0.4c8.6,5.3,17.4,10.3,26.1,15.3c4.8,2.8,4.8,5,0,7.8
	c-20.2,11.7-40.3,23.4-60.5,35C231.2,322.8,229.1,323.5,226.4,323.6z"/>
<path style="fill:#373F51;" d="M266.4,133.7c-0.6,17.3-0.9,34.5-0.8,51.8c-0.6,2-0.6,4,0,6c0,2.3,0,4.5,0,6.8c-0.6,2.5-0.6,5,0,7.4
	c0,0.8-0.1,1.7,0.8,2.3c-0.9,1.1-1.4,0.1-2.2-0.2c-4.6-2.3-8.6-6-13.8-7.2c-0.9,0.4-1.4,0-1.6-0.9c0.5-1.9,2.3-2.3,3.8-2.9
	c3.3-0.2,4.2-2,3.2-5c-0.2-1.3-0.2-2.6-0.1-3.9c0.5-1.9,0.2-3.8-0.3-5.7c0.1-8.4,0.2-16.8,0-25.2c0-2.1,1.3-4.1,0.4-6.2
	c-0.2-1.3-0.2-2.7-0.1-4c0.6-2,0.1-4-0.3-6c0.1-3.6,0.5-7.2-0.2-10.8c-4.2-4.1-9.6-6.2-14.5-9.1c-12.6-7.4-25.3-14.5-37.8-21.9
	c-2.6-1.6-4.9-2-7.6-0.2c-1.3,0.9-3,1.7-4-0.6c-0.5-4.5-0.2-9-0.2-13.5c0-1.2-0.1-2.6,1.7-2.8c13.8,8,27.6,16,41.4,23.8
	c10.5,5.9,21,11.9,31.3,18.2C266.7,127.2,265.3,130.6,266.4,133.7z"/>
<path style="fill:#9CA8C0;" d="M140.3,296.7c6.1-3.6,12.1-7.1,18.1-10.6c8.6-5,17.2-10,25.9-15c1.8-1.1,9.3,1.5,9.8,3.4
	c0.4,1.4-1,1.5-1.8,2c-12.5,7.3-25,14.5-37.5,21.8C147.7,302.4,147.7,302.3,140.3,296.7z"/>
<path style="fill:#9CA8C0;" d="M172.9,239.5c9.5-5.5,18.4-10.7,27.2-15.8c1.6-0.9,8.7,1.7,9.6,3.4c0.5,1-0.4,1.3-0.9,1.7
	c-8.5,5-17.1,9.9-25.6,14.8c-1.1,0.6-2.1,0.6-3.2,0C177.9,242.3,175.7,241.1,172.9,239.5z"/>
<path style="fill:#9CA8C0;" d="M92.2,311.9c7.9-4.6,15.4-8.9,23-13.2c1.4-0.8,8.5,2.1,9.2,3.6c0.5,1-0.4,1.3-1,1.7
	c-7.1,4.1-14.2,8.3-21.3,12.4c-0.9,0.5-1.6,0.4-2.4-0.1C97.3,314.8,94.9,313.5,92.2,311.9z"/>
<path style="fill:#9CA8C0;" d="M221.7,233.9c-6.9,4-13.5,7.8-20,11.7c-1.4,0.8-2.4,0.2-3.4-0.4c-2-1.2-4-2.4-6.6-3.9
	c7.1-4.1,13.8-8,20.4-11.8c1.3-0.7,2.1,0.1,3.1,0.6C217.2,231.2,219.2,232.5,221.7,233.9z"/>
<path style="fill:#9CA8C0;" d="M110.9,298.4c-6.5,3.8-12.9,7.5-19.2,11.2c-1.4,0.8-8.8-2-9.5-3.5c-0.5-1.1,0.5-1.3,1-1.6
	c5.9-3.5,11.9-6.9,17.8-10.4c0.9-0.6,1.8-0.7,2.8-0.1C106.1,295.3,108.7,296.3,110.9,298.4z"/>
<path style="fill:#9CA8C0;" d="M256.9,228.8c6.4-3.7,12.9-7.4,19.3-11.2c1.3-0.8,2.3-0.6,3.4,0.2c1.9,1.4,4.3,2,6.3,4.1
	c-4.7,2.8-9.4,5.1-13.7,8.2C266.8,234.2,261.9,234.6,256.9,228.8z"/>
<path style="fill:#9CA8C0;" d="M282.2,201.5c2.9-1.7,5.3-3.2,7.8-4.6c0.8-0.5,1.5-0.6,2.4-0.1c6,3.5,12,7,18.5,10.7
	c-2.9,1.7-5.3,3-7.6,4.5c-1.5,1-2.6,0.2-3.8-0.5C294,208.3,288.4,205,282.2,201.5z"/>
<path style="fill:#9CA8C0;" d="M70.3,299.2c4.4-2.6,8.4-4.8,12.3-7.2c1-0.6,1.8-0.6,2.8,0c2.2,1.4,4.5,2.7,7.1,4.3
	c-4.3,2.5-8.3,4.7-12.2,7.1c-1.4,0.8-2.4,0.2-3.4-0.4C74.8,301.9,72.8,300.7,70.3,299.2z"/>
<path style="fill:#9BA7BF;" d="M165.7,253.4c-8,6-9.6,6-16.6,0.3C156.4,247.8,157.7,247.8,165.7,253.4z"/>
<path style="fill:#9BA7BF;" d="M234.8,216.8c2.3-2.4,5.2-3.3,7.7-4.9c0.9-0.6,8.5,3.1,8.7,4.1c0.1,0.2,0,0.5-0.1,0.7
	c-0.6,1.6-8.5,4.7-10,3.8C239,219.3,237,218.1,234.8,216.8z"/>
<path style="fill:#9BA7BF;" d="M272,195.1c7.4-5.9,9-6,16.4-0.2C280.7,200.8,278.4,200.8,272,195.1z"/>
<path style="fill:#9BA7BF;" d="M143.5,282.2c9.1-5.9,9.1-5.9,16.7-0.3C153.1,287.9,151.2,288,143.5,282.2z"/>
<path style="fill:#9BA7BF;" d="M159.5,269.5c-6.7,6-8.7,6.1-16.4,0.5C150.4,263.9,152.4,263.9,159.5,269.5z"/>
<path style="fill:#9BA7BF;" d="M163.4,267.8c-2.5-1.5-5-2.9-7.4-4.4c-0.7-0.5-0.3-1.1,0.3-1.4c2.3-1.3,4.5-2.7,6.8-4
	c0.8-0.5,8.5,3.3,8.8,4.3c0.1,0.3-0.1,0.7-0.3,0.9C168.9,264.7,166.2,266.2,163.4,267.8z"/>
<path style="fill:#9BA7BF;" d="M122.9,290.9c-8.1,6.2-8.1,6.2-16.6,0.7C112.2,285.5,115,285.4,122.9,290.9z"/>
<path style="fill:#9BA7BF;" d="M177.6,246.5c-10.4,6.4-6.2,6.2-16.4,0.3C167.8,240.8,171.9,240.8,177.6,246.5z"/>
<path style="fill:#9BA7BF;" d="M132.4,311c-7.9,5.8-9.5,5.8-16.4,0.1C123.7,305.2,126.3,305.2,132.4,311z"/>
<path style="fill:#9BA7BF;" d="M205.8,220.6c9-5.8,9-5.8,16.7-0.2C215.3,226.4,213,226.4,205.8,220.6z"/>
<path style="fill:#9BA7BF;" d="M258,215.9c2.5-2.3,5.3-3.3,7.8-4.9c0.9-0.6,7.9,2.9,8.4,3.9c0.5,1-0.3,1.3-0.9,1.7
	c-1.9,1.2-3.8,2.3-5.8,3.5c-0.8,0.5-1.5,0.7-2.4,0.1C262.9,218.7,260.6,217.4,258,215.9z"/>
<path style="fill:#9BA7BF;" d="M280.9,214.9c3-1.8,5.3-3.2,7.7-4.5c1.2-0.7,8.7,2.7,9,4c0.1,0.2,0,0.5-0.1,0.7
	c-0.7,1.9-8.5,4.6-10.3,3.6C285.3,217.5,283.4,216.4,280.9,214.9z"/>
<path style="fill:#9BA7BF;" d="M240.5,210c-7.7,5.8-10.4,5.8-16.4,0.1C232.3,204.2,233.8,204.2,240.5,210z"/>
<path style="fill:#9BA7BF;" d="M263.8,209.1c-7.5,5.9-10.1,5.9-16.5,0.2C257.3,202.8,254.5,203.1,263.8,209.1z"/>
<path style="fill:#9BA7BF;" d="M183.6,268.4c-7.2,6-8.6,6.1-16.3,0.6C172.1,263.1,176.4,262.9,183.6,268.4z"/>
<path style="fill:#9BA7BF;" d="M189.4,268.4c10.2-6.3,7.2-6.5,16.6-0.6C199.8,273.9,197.8,274,189.4,268.4z"/>
<path style="fill:#9BA7BF;" d="M141.2,267.6c-2.5,2.4-5.4,3.4-7.8,5c-0.8,0.5-8-3-8.5-4c-0.5-1,0.4-1.3,0.9-1.6
	c1.9-1.2,3.8-2.3,5.8-3.5c0.8-0.5,1.5-0.6,2.4-0.1C136.4,264.7,138.7,266.1,141.2,267.6z"/>
<path style="fill:#9BA7BF;" d="M128.7,275c-10.4,6.5-6.9,6-16.4,0.3C118.1,269.4,122.7,269.3,128.7,275z"/>
<path style="fill:#9BA7BF;" d="M202.2,261.2c6.8-6,8.8-6,16.4-0.4C211.3,266.8,208.9,266.8,202.2,261.2z"/>
<path style="fill:#9BA7BF;" d="M130.7,277c10.7-6.6,6.8-6.3,16.7-0.5C141,282.8,139,282.8,130.7,277z"/>
<path style="fill:#9BA7BF;" d="M118.4,284c1-0.6,1.9-1.2,2.9-1.8c6.2-3.7,6.7-3.7,12.5,0.4c1.2,0.9,1.7,1.5,0.2,2.4
	c-0.2,0.1-0.4,0.2-0.7,0.4C126.4,289.7,125.3,289.6,118.4,284z"/>
<path style="fill:#9BA7BF;" d="M104,289.3c-7.7,5.9-9.4,5.9-16.5,0.1C95.6,283.5,98,283.5,104,289.3z"/>
<path style="fill:#9BA7BF;" d="M103.9,318.3c5.4-5.4,10.8-6.5,16.1-0.3C114.2,323.9,111.2,324,103.9,318.3z"/>
<path style="fill:#9BA7BF;" d="M137.1,295.4c-8,6.2-8,6.2-16.5,0.7C126.3,289.9,128.9,289.8,137.1,295.4z"/>
<path style="fill:#9BA7BF;" d="M167.7,255.6c7.5-5.9,10.1-5.9,16.5-0.2C176.5,261.3,175,261.3,167.7,255.6z"/>
<path style="fill:#9BA7BF;" d="M214,253.9c2.5-1.5,5-2.9,7.4-4.4c1.2-0.8,2.1-0.3,3.1,0.3c1.5,0.9,3,1.8,4.6,2.6
	c2.2,1.1,1.7,1.8,0,2.9C222.2,259.5,221,259.5,214,253.9z"/>
<path style="fill:#9BA7BF;" d="M196.7,248c-2.3,2.4-5.2,3.3-7.7,4.9c-0.9,0.6-8.4-3.2-8.7-4.2c-0.1-0.2,0-0.5,0.1-0.7
	c0.7-1.9,8.6-4.6,10.4-3.5C192.7,245.6,194.6,246.8,196.7,248z"/>
<path style="fill:#9BA7BF;" d="M195.4,261.6c-10.1,6.4-7.4,6.4-16.5,0.6C184.6,256.2,186.8,256.1,195.4,261.6z"/>
<path style="fill:#9CA7BF;" d="M227.7,233.2c9.4-5.7,9.4-5.7,16.6-0.1C237,239,234.3,239,227.7,233.2z"/>
<path style="fill:#9BA7BF;" d="M238.3,239.8c2.9-1.7,5.2-3.2,7.5-4.6c2.8-1.6,4.2,1.4,6.3,2.1c1.1,0.4,2.8,0.8,2.8,2.1
	c0,1.4-1.9,1.4-2.7,2.2C247,246.7,243.1,242.6,238.3,239.8z"/>
<path style="fill:#9BA7BF;" d="M171.9,275.5c-2.5,1.5-4.9,3-7.3,4.3c-1.1,0.6-8.1-2.7-8.8-3.9c-0.3-0.6-0.1-0.9,0.3-1.2
	c2.5-1.4,4.8-3.2,7.4-4.2c1.6-0.6,3.1,1.2,4.6,2C169.4,273.4,170.9,273.8,171.9,275.5z"/>
<path style="fill:#9BA7BF;" d="M99.8,282.1c1.3-0.8,2.2-1.3,3.2-1.9c5.9-3.5,6.6-3.4,12.1,0.6c1.6,1.1,1.4,1.8-0.1,2.6
	c-0.1,0.1-0.2,0.1-0.3,0.2C107.7,287.9,106.9,287.8,99.8,282.1z"/>
<path style="fill:#9BA7BF;" d="M131.7,289.1c1.7-1.1,2.8-1.8,3.8-2.4c5.2-3,7.6-2.7,12.1,1.1c0.9,0.8,1.1,1.3,0,1.9
	c-2.2,1.3-4.5,2.6-6.8,3.9c-1.1,0.6-1.9-0.1-2.7-0.6C136.1,291.8,134.2,290.6,131.7,289.1z"/>
<path style="fill:#9BA7BF;" d="M216.3,227.1c2.8-1.6,5.3-3.2,7.8-4.6c1.2-0.6,8.4,2.7,8.8,3.9c0.4,1.1-0.6,1.2-1.1,1.6
	c-6.2,4.7-6.3,4.7-13,0.6C218.1,228.2,217.4,227.7,216.3,227.1z"/>
<path style="fill:#9BA7BF;" d="M144.9,303.7c-2.2,2.2-5,3.1-7.4,4.7c-1,0.7-8.2-2.7-8.7-3.9c-0.5-1.1,0.5-1.2,1-1.6
	C135.9,298.1,137.2,298.2,144.9,303.7z"/>
<path style="fill:#9CA7BF;" d="M136.6,260.8c1.4-0.9,2.5-1.7,3.7-2.4c5-2.9,7.4-2.6,11.9,1.2c1.6,1.4,0.4,1.7-0.5,2.4
	C145.3,266.5,144,266.4,136.6,260.8z"/>
<path style="fill:#9CA7BF;" d="M262.5,222.7c-10.2,6.3-7,6.3-16.5,0.2C253.5,216.9,255.1,216.9,262.5,222.7z"/>
<path style="fill:#9CA7BF;" d="M219.7,247.7c-2.3,1.4-4.5,2.8-6.9,4.1c-1.4,0.8-8.5-2.2-9.2-3.7c-0.5-1,0.4-1.3,1-1.7
	c1.9-1.2,3.9-2.2,5.8-3.4c1-0.6,1.8-0.5,2.8,0.1c1.6,1,3.2,1.9,4.8,2.8C218.6,246.4,219.4,246.6,219.7,247.7z"/>
<path style="fill:#9BA7BF;" d="M270.5,208.4c8.9-5.9,9.6-5.9,16.5,0C279.2,214.2,277,214.2,270.5,208.4z"/>
<path style="fill:#9CA7BF;" d="M243.5,246.6c-1.5,1-2.4,1.6-3.4,2.2c-5.6,3.4-7.4,3.2-12.5-0.8c-1.2-1-1-1.5,0.1-2.1
	c2-1.2,4.1-2.3,6.1-3.5c1.6-0.9,2.6,0.2,3.7,0.8C239.4,244.1,241.2,245.2,243.5,246.6z"/>
<path style="fill:#9AA6BE;" d="M249.1,199.9c0.4,0.2,0.9,0.5,1.3,0.7c2.2,1.5,2.5,2.2-0.1,4.2c-5.5,4.4-9.7,1.6-14.2-1.7
	c0.9-1,1.9-1.7,3.3-2c1.2,0.5,2.2,1.8,3.8,1.5C244.7,200.8,246.5,199.4,249.1,199.9z"/>
<path style="fill:#9AA6BE;" d="M136.9,251.9c2.4-1.4,4.7-2.8,7-4.1c0.9-0.5,1.7-1.1,2.8-0.3c1,0.7,2.7,1.2,3,2
	c0.4,1.4-1.5,1.6-2.5,2.3C143.9,253.8,140.7,256.7,136.9,251.9z"/>
<path style="fill:#9AA6BE;" d="M216.4,205.8c2.6-1.6,5.2-3.3,7.9-4.6c2-1,3.8,0.8,4.7,2c1,1.4-1.4,1.5-2.1,2.3
	c-0.4,0.4-1.1,0.5-1.6,0.9C222.3,209.1,219.4,209,216.4,205.8z"/>
<path style="fill:#9AA6BE;" d="M99.9,273.4c2.6-1.5,4.8-2.8,7.1-4.1c0.3-0.2,0.6-0.4,1-0.5c2.1-0.5,4,0.6,4.8,2.1
	c0.8,1.5-1.5,1.8-2.5,2.4C104.3,276.7,104.3,276.6,99.9,273.4z"/>
<path style="fill:#9AA6BE;" d="M211.9,214.5c-4.7,1.5-8,7.7-13.3,2.2C205.1,211,206.9,210.6,211.9,214.5z"/>
<path style="fill:#9AA6BE;" d="M76.4,292.5c-7.4,5.9-8.4,6.1-12.9,2.5C70.5,289.4,71.7,289.1,76.4,292.5z"/>
<path style="fill:#9AA6BE;" d="M173.3,230.8c2.8-1.6,5.2-3.1,7.7-4.5c2.2-1.2,3.8,0.4,5.3,1.5c0.9,0.7-0.1,1.3-0.6,1.6
	c-2,1.2-4,2.4-6.1,3.5C177,234.3,175.7,231.8,173.3,230.8z"/>
<path style="fill:#9AA6BE;" d="M137.6,256.9c-6.9,5.8-8.3,6-12.8,2.4C132,253.6,133.2,253.3,137.6,256.9z"/>
<path style="fill:#9AA6BE;" d="M87.4,280.4c4.8-1.4,8-7.6,13.4-2.3C95.8,283.2,92.6,284,87.4,280.4z"/>
<path style="fill:#9AA6BE;" d="M149.6,245.2c5.6-5.4,8.1-5.9,12.7-2.6C155.4,248.3,153.9,248.6,149.6,245.2z"/>
<path style="fill:#9BA6BE;" d="M161.8,237.8c8-5.8,8-5.8,12.7-2.4C167.6,241.4,165.9,241.7,161.8,237.8z"/>
<path style="fill:#9AA6BE;" d="M112,266.5c3-1.8,5.3-3.2,7.6-4.6c2.3-1.4,3.6,0.7,5.3,1.5c0.5,0.3,0.5,0.9,0,1.2
	c-2.5,1.5-4.9,3.1-7.5,4.2C115.6,269.6,114.3,267.6,112,266.5z"/>
<path style="fill:#9AA6BE;" d="M199.9,221.6c-4.9,1.2-8,7.4-13.4,2.4C191,218.9,194.7,218,199.9,221.6z"/>
<path style="fill:#9AA6BE;" d="M75.5,287.7c2.4-1.4,4.8-2.7,7.1-4.2c2.3-1.4,3.8,0.3,5.4,1.2c1,0.6,0.3,1.3-0.4,1.7
	c-1.2,0.7-2.5,1.3-3.5,2.1C81,291,78.3,290.6,75.5,287.7z"/>
<path style="fill:#9BA6BE;" d="M269.3,193.1c0-3,0-6,0-9c3,0.8,5.4,2.7,8.4,4.5C274.8,190.3,272.4,192.3,269.3,193.1z"/>
<path style="fill:#9AA6BE;" d="M269.3,198.2c1.6,0.1,2.7,1.2,4,1.8c2.4,1.2,3.6,2.4,0.1,3.8c-1.2,0.5-2.4,2.2-3.6,1.5
	c-1.3-0.7-0.4-2.5-0.5-3.8C269.3,200.5,269.4,199.4,269.3,198.2C269.3,198.2,269.3,198.2,269.3,198.2z"/>
<path style="fill:#96A2BA;" d="M231.1,196.9c2,0,3.2,1.8,5.1,2.2c-1.8,2.7-5,2.9-6.7,0.3C228.3,197.5,230.9,197.9,231.1,196.9z"/>
<path style="fill:#7BB0FE;" d="M244.4,31.9c0.1,10,0.2,20,0.2,30c0.1,13.5,0.1,27,0.1,40.5c0,1.3,0,2.7,0,4.8
	c-7.3-4.2-14.1-8.1-20.9-12c-8.6-5-17.3-9.9-25.9-15.1c-2.6-1.6-4.1-0.2-5.9,1.1c-0.4,0.6-0.9,1.3-1.6,1.7
	c-25,14.6-50.1,29.1-75.3,43.4c-4,2.3-5.5,4.8-5.5,9.4c0.2,27.1,0.1,54.2,0.1,81.3c0,0.6,0,1.2,0,1.9c0.1,3.9,0.3,4.1,3.6,2.2
	c9.5-5.3,18.8-10.8,28.2-16.2c15.2-8.8,30.5-17.6,45.7-26.4c1.9-1.1,3.3-2.6,4.7-4.2c5.4,2.1,9.9,5.6,15.6,8.5
	c-54.7,31.6-108.8,62.8-162.9,94c-1-1.1-0.6-2.1-0.7-3.1c-0.2-40.7-0.3-81.5-0.6-122.2c0-3,1-4.4,3.5-5.8
	c63.7-36.7,127.4-73.5,191.1-110.3C240.3,34.3,242.3,33.1,244.4,31.9z"/>
<path style="fill:#272E3A;" d="M192.2,174.3c0.1,1.6-0.2,2.8-1.8,3.7c-26.6,15.3-53.2,30.6-79.8,46c-0.4,0.2-0.9,0.3-1.7,0.6
	c0-1.5,0-2.7,0-4c-0.1-29.2-0.1-58.5-0.3-87.7c0-2.7,0.7-4.2,3.2-5.6c26.3-15,52.6-30.2,78.9-45.3c1.8,0.2,1.1,1.6,1.1,2.5
	c0.1,4.8,0,9.7,0,14.5c-0.6,3.2-2.7,4.1-5.6,4c-1.4,1.2-0.7,2.8-0.7,4.2c0,19.2,0,38.4-0.1,57.6c0,3.5,0.2,6.4,4.2,7.5
	C190.5,172.6,191.3,173.6,192.2,174.3z"/>
<path style="fill:#4C5671;" d="M186.1,103c1.7-1,3.5-2,5.2-3c0.2-0.3,0.4-0.5,0.7-0.7c0.4-0.1,0.8,0,1.1-0.2c4.3-3.9,8-2.2,12.4,0.4
	c16,9.6,32.3,18.8,48.5,28.1c0.8,0.4,1.5,0.8,1.9,1.7c0.2,0.7-0.2,1.2-0.7,1.5c-4,2.1-7.2,5.5-12,5.9c-18.4-10.7-36.7-21.4-55.1-32
	C187.3,104.3,186.5,103.9,186.1,103z"/>
<path style="fill:#272E3A;" d="M243.1,136.8c4.3-2.5,8.5-5,12.8-7.5c1.1,4,1.3,8-0.1,12c-0.3,0.2-0.6,0.4-0.9,0.4
	c-0.8,0-1.4-0.4-2.1-0.7c-1-0.5-2.1-1.1-2.9,0.2c-0.7,1.3,0.3,2.1,1.2,2.7c0.6,0.5,1.3,0.8,1.9,1.2c1,0.9,2.3,0.9,3.6,1.1
	c0,1.6,0,3.3,0.1,4.9c-0.3,0.2-0.6,0.3-1,0.4c-1.3-0.1-2.2-0.9-3.3-1.4c-0.8-0.4-1.7-0.5-2.3,0.3c-0.7,1-0.4,1.9,0.5,2.5
	c1,0.7,2,1.3,3.1,2c0.7,0.4,1.6,0.6,2.1,1.3c0.1,0.1,0.3,0.2,0.3,0.2c1,8.9,1.2,17.8-0.1,26.7c-0.1,0.1-0.3,0.2-0.4,0.3
	c-1.2-0.1-2-0.9-3.1-1.3c-0.9-0.3-1.8-0.3-2.3,0.6c-0.5,0.9-0.2,1.7,0.6,2.3c0.9,0.8,2.1,1.3,3.2,2c0.9,0.5,1.9,0.3,2.8,0.6
	c0,1.6,0,3.2,0,4.8c-0.3,0.2-0.6,0.3-1,0.3c-1.1-0.1-2-0.7-3.1-1.1c-1-0.4-1.9-0.6-2.6,0.5c-0.7,1.1,0.1,1.8,0.8,2.4
	c0.8,0.6,1.6,1.1,2.2,1.9c0.2,0.3,0.2,0.7,0.1,1c-1.4,0.8-3,1.1-4,2.4c-2,0.9-4,1.8-5.9,2.8C243.1,180.7,243.1,158.7,243.1,136.8z"
	/>
<path style="fill:#9AA6BE;" d="M146.5,81c-0.7,2.3-1.6,4.5-4.4,4.7c-1.4,0.1-1.8-1.3-1.6-2.5c0.5-2.4,1.5-4.7,4.3-5
	C146.6,78,146.4,79.6,146.5,81z"/>
<path style="fill:#B8C1D8;" d="M36,174.2c-0.9-0.9-0.6-2.1-0.6-3.2c0-8.3,0-16.7,0-25c0-1.1-0.3-2.3,0.6-3.2
	C36,153.3,36,163.7,36,174.2z"/>
<path style="fill:#3D4D67;" d="M192.1,99.3c-0.2,0.2-0.5,0.5-0.7,0.7c0-4.9,0-9.7,0-14.6c0-1.2,0.4-2.5-0.8-3.5
	c0.3-0.6,0.9-0.7,1.5-0.8c0.3,0.3,0.5,0.5,0.8,0.8c-1.6,3.3-0.5,6.8-0.7,10.2C192,94.6,192.1,96.9,192.1,99.3z"/>
<path style="fill:#404651;" d="M266.4,133.7c-1.6-3.1-0.3-6.5-0.7-9.7c0.3,0,0.5,0,0.8-0.1C266.4,127.2,266.4,130.5,266.4,133.7z"/>
<path style="fill:#434B5E;" d="M265.6,205.7c-1.2-2.5-1.1-5,0-7.4C265.6,200.8,265.6,203.3,265.6,205.7z"/>
<path style="fill:#40485A;" d="M265.6,191.5c-1.1-2-1.1-4,0-6C265.6,187.5,265.6,189.5,265.6,191.5z"/>
<path style="fill:#99A4B9;" d="M255.1,141.3c0.2-0.1,0.5-0.1,0.7,0c1.8,1.4,1.8,3.1,0.7,4.9c-1.3,0.7-2.6,1.1-3.8-0.3
	C252.7,144,253.5,142.4,255.1,141.3z"/>
<path style="fill:#95A0B7;" d="M253.1,197.4c-0.1-0.2-0.1-0.4-0.2-0.7c-0.1-2.2,0.8-3.7,2.9-4.4c0.3,0,0.5,0,0.8,0
	C258,196.1,257.1,197.4,253.1,197.4z"/>
<path style="fill:#96A1B7;" d="M255.8,151.1c0.3,0,0.5,0,0.8,0c1.6,2,0.4,3.5-0.9,5c-0.8,0.1-1.6,0.3-2.1-0.6
	C252.4,153.1,253.4,151.8,255.8,151.1z"/>
<path style="fill:#95A0B6;" d="M256.6,187.6c-1,0.4-1.9,1.5-3,0.1c-1.2-2.4-0.3-3.8,2.2-4.2l-0.1-0.2c0,0,0.1-0.2,0.1-0.2
	C258.3,184.3,257.1,186,256.6,187.6z"/>
<path style="fill:#4C5671;" d="M118.6,170.9c0-10.7,0.1-21.5,0-32.2c0-2.6,0.8-4.1,3.1-5.4c19-10.9,38-21.9,57-32.9
	c2.1-1.2,3-1.3,3,1.6c-0.1,22.2-0.1,44.5,0.1,66.7c0,2.6-1.7,3.5-3.3,4.4c-9.8,5.7-19.6,11.4-29.4,17c-9.1,5.2-18.3,10.3-27.2,15.6
	c-3.1,1.9-3.1,0.5-3.1-2C118.7,192.9,118.7,181.9,118.6,170.9C118.7,170.9,118.7,170.9,118.6,170.9z"/>
<path style="fill:#DDE1EA;" d="M255.8,151.1c-1.3,1.2-2.5,2.5-2.2,4.5c-1.3-0.7-2.6-1.3-3.9-2c-1.6-0.8-1.7-2-1-3.4
	c0.8-1.5,2-2.2,3.6-1.2C253.5,149.6,254.7,150.4,255.8,151.1z"/>
<path style="fill:#DFE3EC;" d="M255.8,192.4c-1,1.5-2,2.9-2.9,4.4c-1.1-0.6-2.1-1.2-3.2-1.8c-1.6-0.8-1.7-2-1-3.4
	c0.8-1.4,1.9-2.3,3.6-1.3C253.5,191,254.6,191.7,255.8,192.4z"/>
<path style="fill:#DEE2EB;" d="M255.8,183.5c-1.6,1-2.4,2.3-2.2,4.2c-1.3-0.7-2.6-1.3-3.9-2c-1.7-0.9-1.7-2.2-0.9-3.7
	c0.9-1.6,2.1-1.9,3.7-0.9C253.7,181.9,254.7,182.7,255.8,183.5z"/>
<path style="fill:#DEE2EB;" d="M255.1,141.3c-0.3,1.8-1.4,3.2-2.4,4.6c-0.1,0-0.3-0.1-0.3-0.1c-1.6-1.4-5.6-1.5-3.4-5.1
	C251.1,137,253.1,140.7,255.1,141.3z"/>
<path style="fill:#272E3A;" d="M139.6,130.6c5.9-4.7,12.8-7.6,19.1-11.6c2.3-1.5,4.8-2.7,7.2-4c1.6,0,1.7,1.3,1.7,2.4
	c0.1,6.8,0.7,13.5-0.3,20.3c-0.6,1.2-1.7,1.6-2.8,1.3c-4.8-1.1-9,0.3-13.2,2.4c-0.6,0.3-1.2,0.3-1.8,0.2c-1.4-1.1-0.8-2.9-1.5-4.3
	c-0.7-2.5-2.7-3.8-4.9-4.7C141.9,132,140.4,131.9,139.6,130.6z"/>
<path style="fill:#373F51;" d="M166.6,138.3c0-6.6,0-13.2,0-19.8c0-1.2,0.4-2.5-0.7-3.5c3.1-1.8,6.1-3.7,9.1-5.5
	c1,0.8,0.6,1.8,0.6,2.5c0,17.3,0,34.6,0,51.9c0,1.2,0.4,2.5-0.6,3.6c-0.8,0-1.5-0.1-2-0.8c-0.7-1.1-0.6-2.5-1-3.7
	c-0.4-1.9,0.8-3.8,0-5.7c-0.1-0.3-0.1-0.7-0.2-1c0.1-1.8,0.9-3.6,0.2-5.5c-0.1-0.3-0.2-0.7-0.2-1c-0.1-1.8,0.9-3.6,0-5.4
	c-0.5-1.9-1.8-3.1-3.5-4.1C167.7,139.8,166.5,139.7,166.6,138.3z"/>
<path style="fill:#EFA346;" d="M172.8,162.9c0.2,1.2,0.4,2.4,0.6,3.7c0.1,0.7-0.2,1.2-0.6,1.7c-2,3-5.2,4-8.3,5.4
	c-3.8,1.7-7.7,0.6-11.5,0.3c-0.7,0.4-1.2,0.9-1.6,1.6c-4.7,7.5-17.8,7.8-23-0.2c-0.4-0.6-1-1.1-1.3-1.8c-0.4-1.2-0.5-2.4,0.2-3.5
	c0.8-0.7,1.3-0.1,1.9,0.3c7.8,6.2,14.7,6.1,21.8-0.5c1.2-1.1,2.4-1.3,3.8-0.9c2.9,0.9,5.9,0.7,8.9,0.5c3.8-0.3,6.9-1.9,8.3-5.8
	C172.1,163.3,172.4,163.1,172.8,162.9z"/>
<path style="fill:#FDBB61;" d="M126.8,137.6c3.8-2.2,7.5-4.4,11.3-6.6c2,0.6,4.1,0.8,6,1.9c4,2.2,4.2,6.8,0.5,9.3
	c-4.1,2.8-12.1,2.7-16-0.3C127.2,140.9,125.9,139.7,126.8,137.6z"/>
<path style="fill:#9CA8C0;" d="M144.8,184.6c-5.4,4.6-12,7.3-17.9,10.9c-1.6,1-1.5-0.5-1.5-1.4c0-2.6,0-5.2,0-7.8
	c1.5-2.5,3.8-3.6,6.6-3.8C136.1,184.2,140.7,182.9,144.8,184.6z"/>
<path style="fill:#2B323E;" d="M131.2,183c-1.9,1.1-3.9,2.2-5.8,3.2c-1.3-1.4-0.7-3.1-0.7-4.6c0.3-6.5-0.9-13,0.6-19.4
	c1.5-0.4,2.2,0.7,2.8,1.7c0.5,1.2,0.5,2.4,0.5,3.6c0,0.8-0.1,1.6-0.7,2.3c0,1.2,0,2.5,0,3.7c0.2,0.7,0.5,1.3,0.7,2.1
	C127.7,178.7,130.6,180.4,131.2,183z"/>
<path style="fill:#ECA045;" d="M131.2,183c-2.2-1.9-4.3-3.8-3.4-7.2c3.5,3,7.1,5.4,12.1,5.2c3.8-0.1,7.1-1,10-3.4
	c0.7-0.6,1.5-1.9,2.8-0.9c0.8,1.9,0.3,3.3-1.5,4.3c-1.8,1.9-4.2,2.5-6.4,3.6C140.2,185,135.6,185.1,131.2,183z"/>
<path style="fill:#FCD991;" d="M126.8,137.6c1.5,3.9,6.2,6.5,10.8,5.8c1.8-0.3,3.6-0.8,5.4-1.4c2-0.7,3.3-2,3.4-4.4
	c0.1-2.3-1.3-3.2-3-4.3c-1.7-1.1-4-0.5-5.3-2.3c0.5-0.1,1-0.3,1.5-0.4c3.8,0.9,7.9,1.5,9.2,6.2c0.2,4.4-0.4,5.8-4.3,7.1
	c-6.7,2.2-13.3,2.8-19.2-2.4c-0.5-1-0.4-2-0.1-3.1C125.8,138.2,126.3,137.9,126.8,137.6z"/>
<path style="fill:#9DA8BE;" d="M151.3,181c0.6-1.4,1.4-2.8,0.9-4.5c-1-1.2-0.2-2.4,0-3.7c4.1,0.1,8.1,1.1,12.3,0.7
	C160.2,176.4,156,179.2,151.3,181z"/>
<path style="fill:#DD9C4D;" d="M125.3,138.5c0.1,0.9,0.2,1.8,0.2,2.7c0.5,0.7,0.8,1.4,0.9,2.3c0,1,0.1,2,0.1,3.1
	c-0.1,1.2,0,2.4,0,3.6c0,1,0,2,0,2.9c0,0.9,0,1.9,0,2.9c-0.1,1.3,0.2,2.6,0.1,3.9c-0.2,0.6-0.6,1-1.2,1.1
	C124.4,153.4,124.4,146,125.3,138.5z"/>
<path style="fill:#EDA043;" d="M125.3,160.9c0.3-0.3,0.5-0.6,0.8-0.9c0.9,0.1,1.4,0.6,1.9,1.3c0.3,0.6,0.4,1.2,0.2,1.8
	c-0.1,0.3-0.3,0.5-0.6,0.7c-0.7-0.5-1.4-1.1-2.2-1.6C125.3,161.8,125.3,161.4,125.3,160.9z"/>
<path style="fill:#9CA2B3;" d="M172.8,168.3c0.2-0.6,0.4-1.1,0.6-1.7c0.5,0.3,1.1,0.6,1.6,0.9C174.5,168.4,173.6,168.3,172.8,168.3z
	"/>
<path style="fill:#FDDB92;" d="M125.5,146.5c0-1,0-2,0-3c1-0.3,1.6,0.3,2.3,0.9c6.1,5.5,13.3,5.2,18.9-0.7c0.8-0.8,1.4-1.7,2.7-1.8
	c5.1-4.6,11.1-4.7,17.3-3.5c2.6,1.5,5.8,2.3,6.2,6c0.7,2.9-0.9,4.7-3.2,6.1c-5.9,3.5-14.3,3-19.7-1.2c-0.7-0.5-1.2-1.8-2.8-0.4
	c2.5,0.5,4,2.1,5.3,3.8c5.1,4.5,12,4.6,16.4,0.1c1.1-1.2,1.8-2.9,3.9-2.6l0,0.1c0.4,4.1-0.4,5.4-3.8,7.1c-4.3,2-8.7,2.1-13.1,1.1
	c-1.7-0.4-2.9-0.2-4.3,1.2c-5,5.3-16.2,5.8-21.8,1.3c-2.5-2-2.9-5.1-4.2-7.8c0-1-0.1-2.1-0.1-3.1c1.6-0.4,3,2,4.8,0.5
	C128.3,149.5,125.9,149.1,125.5,146.5z"/>
<path style="fill:#F1A64A;" d="M149.3,141.8c-5.9,7.1-12.4,9.1-18.9,6.1c-2.2-1-3-3.3-4.9-4.5c0-0.8,0-1.5,0.1-2.3
	c5.7,3.6,11.8,4.2,18.2,2.1c3.2-1,5.1-3,5.1-6.5C149.6,138.4,148.9,140.2,149.3,141.8z"/>
<path style="fill:#EFA345;" d="M125.5,153.2c0.8,0.7,1.8,1.3,2.1,2.5c1.2,5.5,5.7,6.7,10.1,7.2c5.1,0.6,10.4,0.2,13.6-4.8
	c1.1-1.6,2-1.4,3.3-1c4.5,1.3,9,1.4,13.4-0.5c2.9-1.2,4.8-3.1,4.6-6.4c1.1,2,0.3,4-0.1,6c-0.4,2.3-1.9,3.6-3.9,4.4
	c-4.5,1.6-9,2.3-13.7,0.7c-0.9-0.3-1.9-0.7-2.7,0.3c-3.6,6.3-9.9,7.8-16.9,6.2c-3.8-0.9-6.3-3.4-7.8-6.9c-1-1.5-1.2-3.4-2.2-5
	C125.4,155.1,125.5,154.2,125.5,153.2z"/>
<path style="fill:#EFA346;" d="M127.8,167.5c-0.1-1.2-0.2-2.4-0.3-3.6c0,0,0.3-0.2,0.3-0.2c0.5,0,1,0.1,1.4,0.4
	c7.6,6.2,14.9,6.1,21.9-0.5c1.5-1.4,3.1-1.4,4.8-0.8c2.4,0.9,4.9,0.8,7.4,0.5c4.2-0.5,7.4-2.6,9.5-6.4c0.9,2-0.2,3.9-0.1,5.9
	c0,0-0.2,0.2-0.2,0.2c-3.9,7.1-9.4,7.6-16.2,6.2c-2.8-0.6-4.9-0.9-6.8,1.5c-6.2,3.3-12.5,3.3-18.9,0.2
	C129.4,170.2,128.3,169,127.8,167.5z"/>
<path style="fill:#FDD98F;" d="M172.8,157c-0.3,4.5-3.8,7.2-10.5,7.3c-5.6,0.1-10.3,0-15.6,3.4c-6.3,4.1-14.6,1.4-19-4
	c-0.1-0.7-0.1-1.4-0.2-2.1c-0.4-0.3-0.3-0.6,0.1-0.9c3.4,4.9,7.9,7.5,14.1,6.9c4.6-0.5,7.8-2.6,9.9-6.7c1.1-1,2.1,0,3,0.4
	c4.9,1.7,9.6,1.5,14.1-1.2c1.3-1.2,2.5-2.5,3.8-3.7C172.8,156.5,172.8,156.7,172.8,157z"/>
<path style="fill:#EEA144;" d="M151.7,153.2c-1.4-2.3-3.4-3.6-6.9-3.6c1.5-1.4,2.8-2.1,3.3-3.5c3.9,5.7,12.8,7.5,20.2,4.1
	c2.6-1.2,4.3-2.9,4.4-5.8c0.8,2-0.1,3.9-0.2,5.8c-1,1-2,2-3.1,3.1C163.6,157.1,157.7,156.6,151.7,153.2z"/>
<path style="fill:#FCD88F;" d="M149.4,169.8c1.8-2.4,3.7-2.7,6.7-1.6c5.2,1.9,10.2,1.3,14.2-3.2c0.6-0.7,1.5-1.3,2.2-1.9
	c-0.3,4-3,6.8-7.9,7.3c-3.7,0.4-7.5-0.5-11.1-0.5c-3.2,0-5.2,4.4-9,5.3c-6.5,1.4-13.2-0.4-16.6-5.4c0-0.8,0-1.6-0.1-2.3
	c0.9,0.8,1.8,1.6,2.8,2.3C135.1,174.5,144.9,174.5,149.4,169.8z"/>
<path style="fill:#FBD78F;" d="M152.2,172.9c0,1.2,0,2.4,0,3.7c-4.2,6.6-16.8,6.7-22.5,2.4c-1.1-0.8-1.1-2.2-1.9-3.1
	c0-0.8,0-1.5,0-2.3c2.9,3.1,5.7,6.2,10.3,6.7C144.5,180.9,148.9,178,152.2,172.9z"/>
<path style="fill:#FED88E;" d="M131.4,137.5c1.7-0.2,3.2-0.5,4.2-1.8c1.2-1.7,2.7-1.3,4.3-0.6c1.2,0.5,1.2,2,0.8,2.5
	c-1.1,1.2-2.1,3.1-4,2.8C134.9,140,132.8,139.7,131.4,137.5z"/>
<path style="fill:#E8A450;" d="M125.5,146.5c1.5,2.1,4,2.6,6.1,3.9c-2.4,3.5-4.3,1.4-6.2-0.3C125.4,148.9,125.4,147.7,125.5,146.5z"
	/>
<path style="fill:#F0D08D;" d="M127.7,160.7c0,0.3,0,0.6-0.1,0.9c-0.5-0.5-1-1-1.6-1.5c-0.6-1.2-0.9-2.5-0.6-3.9
	C127.1,157.2,127.9,158.6,127.7,160.7z"/>
<path style="fill:#FDBB61;" d="M160.8,150.3c-3.3,0.1-6.2-0.2-8.5-2.6c-2.1-2.3-2-4.3,0.4-6.3c3.7-3.1,12.2-3,15.8,0.1
	c2.9,2.5,2.6,5.8-0.8,7.6C165.5,150.1,163.1,150.5,160.8,150.3z"/>
<path style="fill:#FDBB61;" d="M139.5,161.5c-1.5,0.1-3.2-0.2-4.8-0.8c-2.4-0.8-4.4-2.1-4.6-4.8c-0.2-2.6,2.1-3.9,4.1-4.7
	c4.8-1.9,9.5-1.6,13.8,1.4c2.8,1.9,2.4,5.3-0.7,7.3C145.7,160.9,142.8,161.5,139.5,161.5z"/>
<path style="fill:#FCBC63;" d="M151.7,153.2c6,1.9,11.9,2.4,17.9,0C165.3,158.3,156.5,158.3,151.7,153.2z"/>
<path style="fill:#FCB960;" d="M168.9,160c-3.4,3.7-7.7,3.4-12,2.6c-1.8-0.3-3.5-1.2-5.2-1.8c0.3-0.7,0.7-1.5,1.6-1
	C158.5,162.3,163.6,161.1,168.9,160z"/>
<path style="fill:#FCBA61;" d="M149.4,169.8c-2.1,3.6-7.8,5.5-12.7,4.1c-2.4-0.7-5.2-1-6.2-4C136.9,173.2,143.1,173.2,149.4,169.8z"
	/>
<path style="fill:#FDC36E;" d="M136.6,137.5c0.4-0.7,0.8-1.6,1.9-1.2c0.2,0.1,0.5,0.7,0.5,0.8C138.3,137.8,137.4,137.4,136.6,137.5
	L136.6,137.5z"/>
<path style="fill:#FDBE65;" d="M136.6,137.5c0.1,0.5,0.8,1.2-0.3,1.4c-0.3,0.1-0.8-0.2-0.9-0.4C135.3,137.6,136,137.6,136.6,137.5
	C136.6,137.5,136.6,137.5,136.6,137.5z"/>
<path style="fill:#FED88C;" d="M160.2,147.3c-1.3-0.1-2.4,0-3.5-0.5c-1.1-0.5-0.9-2.1-0.7-2.1c2.5-0.2,4.2-2.8,6.8-2.6
	c0.8,0.1,1.8,0.3,2,1.3c0.1,0.8,0.1,1.6-0.8,2.3C162.7,146.6,161.6,147.7,160.2,147.3z"/>
<path style="fill:#FED78B;" d="M139.3,158.4c-0.5,0-1.6,0-2.6-0.1c-1-0.1-1.5-0.9-1.6-1.8c-0.2-1.3,0.8-0.8,1.4-1
	c1.2-0.4,2.2-1,3.1-1.9c1.4-1.3,3.3-0.3,4.3,0.5c1,0.8-0.1,2.2-1,3.1C142,158,141.1,158.7,139.3,158.4z"/>
<path style="fill:#FDC069;" d="M161,145.9c-0.5,0.6-0.9,0.6-1.4,0.4c-0.3-0.1-0.7-0.5-0.7-0.7c0-0.6,0.6-0.6,1-0.5
	C160.3,145.3,160.6,145.7,161,145.9z"/>
<path style="fill:#FDC16A;" d="M161.9,144.8c-0.2-0.1-0.5-0.3-0.7-0.5c-0.3-0.5,0.2-0.6,0.5-0.6c0.3,0,0.7,0.2,0.8,0.5
	C162.8,144.5,162.5,144.7,161.9,144.8z"/>
<path style="fill:#FDBF68;" d="M140.1,157c-0.2,0.6-0.7,0.7-1.1,0.4c-0.4-0.2-1.1-0.3-0.9-0.9c0.1-0.3,0.8-0.6,1.2-0.6
	C139.8,156,140.1,156.4,140.1,157z"/>
</svg>
