<svg xmlns="http://www.w3.org/2000/svg" xmlns:xlink="http://www.w3.org/1999/xlink" version="1.1" x="0px" y="0px" viewBox="0 0 1000 1000" enable-background="new 0 0 1000 1000" xml:space="preserve">
<metadata> Svg Vector Icons : http://www.onlinewebfonts.com/icon </metadata>
<g><g transform="translate(0.000000,512.000000) scale(0.100000,-0.100000)"><path d="M4254.7,4971.2c-76.6-40.2-120.7-80.4-162.8-149.4l-57.5-91.9l-5.7-1549.3l-5.8-1547.4h-47.9c-120.6,0-2686.9-136-2740.5-143.6c-91.9-15.3-151.3-76.6-402.2-398.3c-308.3-396.4-342.8-473-294.9-639.6c21.1-68.9,486.4-683.7,576.4-758.4c32.6-28.7,86.2-55.5,120.7-61.3c57.5-9.6,2600.7-143.6,2730.9-143.6h59.4v-2049.1c0-1488,5.7-2060.6,21.1-2095.1c32.6-70.8,153.2-111.1,354.3-122.6c193.4-9.6,360,26.8,415.6,88.1c30.6,32.6,32.6,352.4,28.7,4737.9l-5.7,4699.6l-53.6,80.4c-74.7,114.9-180,178.1-314.1,189.6C4375.4,5024.8,4346.7,5019.1,4254.7,4971.2z"/><path d="M5461.3,2887.6V1824.7l149.3,9.6c80.5,5.7,806.3,42.1,1612.5,78.5c1331,61.3,1472.7,70.9,1541.6,103.4c86.2,42.1,624.3,628.1,683.7,743.1c42.2,86.2,42.2,185.8,0,266.2c-59.4,111.1-599.4,695.2-681.8,737.3c-70.8,36.4-185.7,44-1637.4,113c-859.9,40.2-1585.7,74.7-1614.4,74.7h-53.6V2887.6z"/></g></g>
</svg>